<svg version="1.1" xmlns="http://www.w3.org/2000/svg" viewBox="0 0 120.0 120.0" xml:space="preserve" fill="#FAFAFA">
<path d="M0,60.2c0-15.4,0-30.7,0-46.1C0,7.2,4.6,1.5,11.5,0.2C12.3,0.1,13.1,0,14,0c30.8,0,61.6,0,92.4,0c7.2,0,13.1,5.4,13.9,12.5
	c0,0.4,0,0.8,0,1.2c0,31,0,61.9,0,92.9c0,6.8-5.3,12.8-12.1,13.6c-0.5,0.1-1.1,0.1-1.6,0.1c-31,0-61.9,0-92.9,0
	c-6.7,0-12.6-5.2-13.5-11.8c-0.1-0.8-0.2-1.6-0.2-2.3C0,90.8,0,75.5,0,60.2z M96,50.9c1.9,7.7,1.6,15.1-1.2,22.5
	c-2.8,7.3-7.5,13.2-14,17.6c-11.7,7.8-26.9,8.3-39.1,1.3c-6.1-3.6-10.9-8.5-14.2-14.7C23,69.1,22,60.2,24.3,50.9
	c-3.5,0-6.9,0-10.4,0c0,0.2,0,0.4,0,0.5c0,16.7,0,33.4,0,50.1c0,2.8,2,4.8,4.8,4.8c27.7,0,55.3,0,83,0c2.8,0,4.8-2,4.8-4.8
	c0-16.7,0-33.5,0-50.2c0-0.2,0-0.3,0-0.5C102.9,50.9,99.5,50.9,96,50.9z M37,60.2c0,12.8,10.4,23.1,23.1,23.1
	c12.8,0,23.1-10.3,23.1-23.1C83.3,47.4,72.9,37,60.2,37C47.4,37,37,47.4,37,60.2z M94.9,37c2.3,0,4.6,0,6.9,0c2.6,0,4.7-2,4.7-4.7
	c0-4.6,0-9.2,0-13.8c0-2.7-2-4.7-4.7-4.7c-4.6,0-9.1,0-13.7,0c-2.7,0-4.7,2-4.7,4.7c0,4.6,0,9.2,0,13.8c0,2.7,2,4.7,4.7,4.7
	C90.3,37,92.6,37,94.9,37z"/>
</svg>
